<svg xmlns="http://www.w3.org/2000/svg" viewBox="110 134 1360 440" role="img" aria-label="movec">
  <path d="M313.946 255.011C307.442 261.909 299.815 267.242 291.022 271.012L358.509 355.387C365.013 348.249 371.717 342.635 380.308 337.782L313.946 255.011Z" fill="#63656A"/>
  <path d="M682.13 484V452.5H684.875L699.275 477.07H697.835L712.1 452.5H714.845V484H711.65V457.495H712.415L699.275 479.995H697.7L684.47 457.495H685.325V484H682.13ZM750.129 484.27C747.759 484.27 745.554 483.88 743.514 483.1C741.504 482.29 739.749 481.165 738.249 479.725C736.779 478.255 735.624 476.56 734.784 474.64C733.974 472.69 733.569 470.56 733.569 468.25C733.569 465.94 733.974 463.825 734.784 461.905C735.624 459.955 736.779 458.26 738.249 456.82C739.749 455.35 741.504 454.225 743.514 453.445C745.524 452.635 747.729 452.23 750.129 452.23C752.499 452.23 754.689 452.635 756.699 453.445C758.709 454.225 760.449 455.335 761.919 456.775C763.419 458.215 764.574 459.91 765.384 461.86C766.224 463.81 766.644 465.94 766.644 468.25C766.644 470.56 766.224 472.69 765.384 474.64C764.574 476.59 763.419 478.285 761.919 479.725C760.449 481.165 758.709 482.29 756.699 483.1C754.689 483.88 752.499 484.27 750.129 484.27ZM750.129 481.3C752.019 481.3 753.759 480.985 755.349 480.355C756.969 479.695 758.364 478.78 759.534 477.61C760.734 476.41 761.664 475.03 762.324 473.47C762.984 471.88 763.314 470.14 763.314 468.25C763.314 466.36 762.984 464.635 762.324 463.075C761.664 461.485 760.734 460.105 759.534 458.935C758.364 457.735 756.969 456.82 755.349 456.19C753.759 455.53 752.019 455.2 750.129 455.2C748.239 455.2 746.484 455.53 744.864 456.19C743.244 456.82 741.834 457.735 740.634 458.935C739.464 460.105 738.534 461.485 737.844 463.075C737.184 464.635 736.854 466.36 736.854 468.25C736.854 470.11 737.184 471.835 737.844 473.425C738.534 475.015 739.464 476.41 740.634 477.61C741.834 478.78 743.244 479.695 744.864 480.355C746.484 480.985 748.239 481.3 750.129 481.3ZM791.038 484V455.38H779.968V452.5H805.438V455.38H794.368V484H791.038ZM822.008 484V452.5H825.338V484H822.008ZM860.607 484.27C858.237 484.27 856.032 483.88 853.992 483.1C851.982 482.29 850.227 481.165 848.727 479.725C847.257 478.255 846.102 476.56 845.262 474.64C844.452 472.69 844.047 470.56 844.047 468.25C844.047 465.94 844.452 463.825 845.262 461.905C846.102 459.955 847.257 458.26 848.727 456.82C850.227 455.35 851.982 454.225 853.992 453.445C856.002 452.635 858.207 452.23 860.607 452.23C862.977 452.23 865.167 452.635 867.177 453.445C869.187 454.225 870.927 455.335 872.397 456.775C873.897 458.215 875.052 459.91 875.862 461.86C876.702 463.81 877.122 465.94 877.122 468.25C877.122 470.56 876.702 472.69 875.862 474.64C875.052 476.59 873.897 478.285 872.397 479.725C870.927 481.165 869.187 482.29 867.177 483.1C865.167 483.88 862.977 484.27 860.607 484.27ZM860.607 481.3C862.497 481.3 864.237 480.985 865.827 480.355C867.447 479.695 868.842 478.78 870.012 477.61C871.212 476.41 872.142 475.03 872.802 473.47C873.462 471.88 873.792 470.14 873.792 468.25C873.792 466.36 873.462 464.635 872.802 463.075C872.142 461.485 871.212 460.105 870.012 458.935C868.842 457.735 867.447 456.82 865.827 456.19C864.237 455.53 862.497 455.2 860.607 455.2C858.717 455.2 856.962 455.53 855.342 456.19C853.722 456.82 852.312 457.735 851.112 458.935C849.942 460.105 849.012 461.485 848.322 463.075C847.662 464.635 847.332 466.36 847.332 468.25C847.332 470.11 847.662 471.835 848.322 473.425C849.012 475.015 849.942 476.41 851.112 477.61C852.312 478.78 853.722 479.695 855.342 480.355C856.962 480.985 858.717 481.3 860.607 481.3ZM895.836 484V452.5H898.581L920.316 479.86H918.876V452.5H922.161V484H919.416L897.726 456.64H899.166V484H895.836ZM943.693 484V452.5H956.518C959.878 452.5 962.818 453.175 965.338 454.525C967.888 455.845 969.868 457.69 971.278 460.06C972.688 462.43 973.393 465.16 973.393 468.25C973.393 471.34 972.688 474.07 971.278 476.44C969.868 478.81 967.888 480.67 965.338 482.02C962.818 483.34 959.878 484 956.518 484H943.693ZM947.023 481.12H956.338C959.128 481.12 961.543 480.58 963.583 479.5C965.653 478.39 967.258 476.875 968.398 474.955C969.538 473.005 970.108 470.77 970.108 468.25C970.108 465.7 969.538 463.465 968.398 461.545C967.258 459.625 965.653 458.125 963.583 457.045C961.543 455.935 959.128 455.38 956.338 455.38H947.023V481.12ZM986.641 484L1001.04 452.5H1004.33L1018.73 484H1015.22L1001.99 454.435H1003.34L990.106 484H986.641ZM992.311 475.585L993.301 472.885H1011.62L1012.61 475.585H992.311ZM1039.72 484V455.38H1028.65V452.5H1054.12V455.38H1043.05V484H1039.72ZM1064.07 484L1078.47 452.5H1081.76L1096.16 484H1092.65L1079.42 454.435H1080.77L1067.54 484H1064.07ZM1069.74 475.585L1070.73 472.885H1089.05L1090.04 475.585H1069.74ZM1144.6 484L1130.65 452.5H1134.25L1147.3 482.155H1145.32L1158.46 452.5H1161.84L1147.89 484H1144.6ZM1180.63 466.585H1197.28V469.42H1180.63V466.585ZM1180.99 481.12H1199.93V484H1177.66V452.5H1199.26V455.38H1180.99V481.12ZM1232.6 484.27C1230.23 484.27 1228.04 483.88 1226.03 483.1C1224.02 482.29 1222.28 481.165 1220.81 479.725C1219.34 478.285 1218.19 476.59 1217.35 474.64C1216.54 472.69 1216.13 470.56 1216.13 468.25C1216.13 465.94 1216.54 463.81 1217.35 461.86C1218.19 459.91 1219.34 458.215 1220.81 456.775C1222.31 455.335 1224.07 454.225 1226.08 453.445C1228.09 452.635 1230.28 452.23 1232.65 452.23C1234.93 452.23 1237.07 452.62 1239.08 453.4C1241.09 454.15 1242.79 455.29 1244.17 456.82L1242.05 458.935C1240.76 457.615 1239.34 456.67 1237.78 456.1C1236.22 455.5 1234.54 455.2 1232.74 455.2C1230.85 455.2 1229.09 455.53 1227.47 456.19C1225.85 456.82 1224.44 457.735 1223.24 458.935C1222.04 460.105 1221.1 461.485 1220.41 463.075C1219.75 464.635 1219.42 466.36 1219.42 468.25C1219.42 470.14 1219.75 471.88 1220.41 473.47C1221.1 475.03 1222.04 476.41 1223.24 477.61C1224.44 478.78 1225.85 479.695 1227.47 480.355C1229.09 480.985 1230.85 481.3 1232.74 481.3C1234.54 481.3 1236.22 481 1237.78 480.4C1239.34 479.8 1240.76 478.84 1242.05 477.52L1244.17 479.635C1242.79 481.165 1241.09 482.32 1239.08 483.1C1237.07 483.88 1234.91 484.27 1232.6 484.27ZM1268.24 484V455.38H1257.17V452.5H1282.64V455.38H1271.57V484H1268.24ZM1312.54 484.27C1310.17 484.27 1307.97 483.88 1305.93 483.1C1303.92 482.29 1302.16 481.165 1300.66 479.725C1299.19 478.255 1298.04 476.56 1297.2 474.64C1296.39 472.69 1295.98 470.56 1295.98 468.25C1295.98 465.94 1296.39 463.825 1297.2 461.905C1298.04 459.955 1299.19 458.26 1300.66 456.82C1302.16 455.35 1303.92 454.225 1305.93 453.445C1307.94 452.635 1310.14 452.23 1312.54 452.23C1314.91 452.23 1317.1 452.635 1319.11 453.445C1321.12 454.225 1322.86 455.335 1324.33 456.775C1325.83 458.215 1326.99 459.91 1327.8 461.86C1328.64 463.81 1329.06 465.94 1329.06 468.25C1329.06 470.56 1328.64 472.69 1327.8 474.64C1326.99 476.59 1325.83 478.285 1324.33 479.725C1322.86 481.165 1321.12 482.29 1319.11 483.1C1317.1 483.88 1314.91 484.27 1312.54 484.27ZM1312.54 481.3C1314.43 481.3 1316.17 480.985 1317.76 480.355C1319.38 479.695 1320.78 478.78 1321.95 477.61C1323.15 476.41 1324.08 475.03 1324.74 473.47C1325.4 471.88 1325.73 470.14 1325.73 468.25C1325.73 466.36 1325.4 464.635 1324.74 463.075C1324.08 461.485 1323.15 460.105 1321.95 458.935C1320.78 457.735 1319.38 456.82 1317.76 456.19C1316.17 455.53 1314.43 455.2 1312.54 455.2C1310.65 455.2 1308.9 455.53 1307.28 456.19C1305.66 456.82 1304.25 457.735 1303.05 458.935C1301.88 460.105 1300.95 461.485 1300.26 463.075C1299.6 464.635 1299.27 466.36 1299.27 468.25C1299.27 470.11 1299.6 471.835 1300.26 473.425C1300.95 475.015 1301.88 476.41 1303.05 477.61C1304.25 478.78 1305.66 479.695 1307.28 480.355C1308.9 480.985 1310.65 481.3 1312.54 481.3ZM1347.77 484V452.5H1359.56C1362.23 452.5 1364.52 452.935 1366.44 453.805C1368.36 454.645 1369.83 455.875 1370.85 457.495C1371.9 459.085 1372.43 461.02 1372.43 463.3C1372.43 465.52 1371.9 467.44 1370.85 469.06C1369.83 470.65 1368.36 471.88 1366.44 472.75C1364.52 473.59 1362.23 474.01 1359.56 474.01H1349.61L1351.1 472.48V484H1347.77ZM1369.28 484L1361.18 472.57H1364.78L1372.92 484H1369.28ZM1351.1 472.75L1349.61 471.175H1359.47C1362.62 471.175 1365 470.485 1366.62 469.105C1368.27 467.725 1369.1 465.79 1369.1 463.3C1369.1 460.78 1368.27 458.83 1366.62 457.45C1365 456.07 1362.62 455.38 1359.47 455.38H1349.61L1351.1 453.805V472.75Z" fill="#63656A"/>
  <path d="M752.34 275.9C763.647 275.9 773.628 278.108 782.285 282.525C791.118 286.942 798.008 293.743 802.955 302.93C807.902 311.94 810.375 323.6 810.375 337.91V419H777.25V342.15C777.25 329.607 774.512 320.243 769.035 314.06C763.558 307.877 755.697 304.785 745.45 304.785C738.207 304.785 731.758 306.375 726.105 309.555C720.628 312.735 716.3 317.417 713.12 323.6C710.117 329.783 708.615 337.645 708.615 347.185V419H675.49V342.15C675.49 329.607 672.752 320.243 667.275 314.06C661.798 307.877 653.937 304.785 643.69 304.785C636.447 304.785 629.998 306.375 624.345 309.555C618.868 312.735 614.54 317.417 611.36 323.6C608.357 329.783 606.855 337.645 606.855 347.185V419H573.73V277.49H605.265V315.12L599.7 303.99C604.47 294.803 611.36 287.825 620.37 283.055C629.557 278.285 639.98 275.9 651.64 275.9C664.89 275.9 676.373 279.168 686.09 285.705C695.983 292.242 702.52 302.135 705.7 315.385L692.715 310.88C697.308 300.28 704.905 291.8 715.505 285.44C726.105 279.08 738.383 275.9 752.34 275.9ZM916.563 420.855C902.077 420.855 889.18 417.763 877.873 411.58C866.567 405.22 857.645 396.563 851.108 385.61C844.572 374.657 841.303 362.202 841.303 348.245C841.303 334.112 844.572 321.657 851.108 310.88C857.645 299.927 866.567 291.358 877.873 285.175C889.18 278.992 902.077 275.9 916.563 275.9C931.227 275.9 944.212 278.992 955.518 285.175C967.002 291.358 975.923 299.838 982.283 310.615C988.82 321.392 992.088 333.935 992.088 348.245C992.088 362.202 988.82 374.657 982.283 385.61C975.923 396.563 967.002 405.22 955.518 411.58C944.212 417.763 931.227 420.855 916.563 420.855ZM916.563 392.5C924.69 392.5 931.933 390.733 938.293 387.2C944.653 383.667 949.6 378.543 953.133 371.83C956.843 365.117 958.698 357.255 958.698 348.245C958.698 339.058 956.843 331.197 953.133 324.66C949.6 317.947 944.653 312.823 938.293 309.29C931.933 305.757 924.778 303.99 916.828 303.99C908.702 303.99 901.458 305.757 895.098 309.29C888.915 312.823 883.968 317.947 880.258 324.66C876.548 331.197 874.693 339.058 874.693 348.245C874.693 357.255 876.548 365.117 880.258 371.83C883.968 378.543 888.915 383.667 895.098 387.2C901.458 390.733 908.613 392.5 916.563 392.5ZM1057.51 419L996.827 277.49H1031.28L1083.48 402.305H1066.52L1120.58 277.49H1152.38L1091.7 419H1057.51ZM1235.72 420.855C1220 420.855 1206.22 417.763 1194.38 411.58C1182.72 405.22 1173.62 396.563 1167.08 385.61C1160.72 374.657 1157.54 362.202 1157.54 348.245C1157.54 334.112 1160.64 321.657 1166.82 310.88C1173.18 299.927 1181.84 291.358 1192.79 285.175C1203.92 278.992 1216.55 275.9 1230.68 275.9C1244.46 275.9 1256.74 278.903 1267.52 284.91C1278.3 290.917 1286.78 299.397 1292.96 310.35C1299.14 321.303 1302.23 334.2 1302.23 349.04C1302.23 350.453 1302.15 352.043 1301.97 353.81C1301.97 355.577 1301.88 357.255 1301.7 358.845H1183.78V336.85H1284.21L1271.23 343.74C1271.41 335.613 1269.73 328.458 1266.19 322.275C1262.66 316.092 1257.8 311.233 1251.62 307.7C1245.61 304.167 1238.63 302.4 1230.68 302.4C1222.56 302.4 1215.4 304.167 1209.22 307.7C1203.21 311.233 1198.44 316.18 1194.91 322.54C1191.55 328.723 1189.87 336.055 1189.87 344.535V349.835C1189.87 358.315 1191.82 365.823 1195.7 372.36C1199.59 378.897 1205.07 383.932 1212.13 387.465C1219.2 390.998 1227.33 392.765 1236.51 392.765C1244.46 392.765 1251.62 391.528 1257.98 389.055C1264.34 386.582 1269.99 382.695 1274.94 377.395L1292.69 397.8C1286.33 405.22 1278.3 410.962 1268.58 415.025C1259.04 418.912 1248.09 420.855 1235.72 420.855ZM1398.98 420.855C1384.14 420.855 1370.89 417.763 1359.23 411.58C1347.74 405.22 1338.73 396.563 1332.2 385.61C1325.66 374.657 1322.39 362.202 1322.39 348.245C1322.39 334.112 1325.66 321.657 1332.2 310.88C1338.73 299.927 1347.74 291.358 1359.23 285.175C1370.89 278.992 1384.14 275.9 1398.98 275.9C1412.76 275.9 1424.86 278.727 1435.28 284.38C1445.88 289.857 1453.92 297.983 1459.4 308.76L1433.96 323.6C1429.72 316.887 1424.51 311.94 1418.32 308.76C1412.32 305.58 1405.78 303.99 1398.71 303.99C1390.59 303.99 1383.25 305.757 1376.72 309.29C1370.18 312.823 1365.06 317.947 1361.35 324.66C1357.64 331.197 1355.78 339.058 1355.78 348.245C1355.78 357.432 1357.64 365.382 1361.35 372.095C1365.06 378.632 1370.18 383.667 1376.72 387.2C1383.25 390.733 1390.59 392.5 1398.71 392.5C1405.78 392.5 1412.32 390.91 1418.32 387.73C1424.51 384.55 1429.72 379.603 1433.96 372.89L1459.4 387.73C1453.92 398.33 1445.88 406.545 1435.28 412.375C1424.86 418.028 1412.76 420.855 1398.98 420.855Z" fill="#63656A"/>
  <path d="M420.816 493.139C466.668 493.139 503.839 456.009 503.839 410.207C503.839 364.405 466.668 327.276 420.816 327.276C374.964 327.276 337.793 364.405 337.793 410.207C337.793 456.009 374.964 493.139 420.816 493.139Z" fill="#ED6B06"/>
  <path d="M264.566 276.386C301.926 276.386 332.213 246.132 332.213 208.813C332.213 171.494 301.926 141.241 264.566 141.241C227.206 141.241 196.919 171.494 196.919 208.813C196.919 246.132 227.206 276.386 264.566 276.386Z" fill="#00AAA7"/>
  <path d="M240.558 461.498C239.956 461.699 239.314 461.498 238.993 460.977C227.109 443.412 207.036 431.823 184.233 431.863C149.104 431.943 119.356 460.857 118.352 495.906C117.308 533.201 147.258 563.759 184.353 563.759C221.448 563.759 250.354 534.244 250.354 497.831C250.354 495.024 249.953 492.297 249.551 489.57C249.471 488.928 249.832 488.287 250.434 488.086L348.713 451.433C344.257 443.212 341.045 434.55 339.078 425.125L240.518 461.498H240.558ZM221.007 506.453C217.916 520.248 206.755 531.397 192.944 534.485C165.524 540.58 141.517 516.599 147.659 489.249C150.75 475.454 161.911 464.306 175.722 461.218C203.142 455.122 227.149 479.103 221.007 506.453Z" fill="#63656A"/>
</svg>
